<?xml version="1.0" encoding="UTF-8"?>
<svg xmlns="http://www.w3.org/2000/svg" width="960" height="1000" viewBox="0 0 960 1000" font-family="-apple-system,'PingFang SC','Helvetica Neue',Arial,sans-serif">
  <defs>
    <linearGradient id="wf" x1="0" y1="0" x2="0" y2="1">
      <stop offset="0%"   stop-color="#3a1f00"/>
      <stop offset="35%"  stop-color="#8a4a00"/>
      <stop offset="60%"  stop-color="#ffb000"/>
      <stop offset="80%"  stop-color="#ff7a00"/>
      <stop offset="100%" stop-color="#301a00"/>
    </linearGradient>
    <linearGradient id="wf2" x1="0" y1="0" x2="1" y2="0">
      <stop offset="0%"   stop-color="#1a1206"/>
      <stop offset="30%"  stop-color="#5c3300"/>
      <stop offset="55%"  stop-color="#e08a00"/>
      <stop offset="70%"  stop-color="#ffc24d"/>
      <stop offset="100%" stop-color="#241503"/>
    </linearGradient>
    <filter id="soft" x="-20%" y="-20%" width="140%" height="140%">
      <feGaussianBlur stdDeviation="6"/>
    </filter>
  </defs>

  <!-- background -->
  <rect width="960" height="1000" fill="#050608"/>
  <text x="480" y="46" fill="#e6e6e6" font-size="22" font-weight="600" text-anchor="middle">MRRC Modern · Android v1.0.0 — 界面原型</text>
  <text x="480" y="70" fill="#8a8f98" font-size="12.5" text-anchor="middle">按实际 Compose 布局绘制：MainScreen.kt / RecordingPanel.kt（v1.0.0）</text>

  <!-- ======================= PHONE 1 : MAIN ======================= -->
  <g>
    <rect x="40" y="95" width="420" height="860" rx="34" fill="#0d0e11" stroke="#2a2d33" stroke-width="2"/>
    <rect x="56" y="111" width="388" height="828" rx="22" fill="#0b0b0c"/>

    <!-- top bar -->
    <circle cx="76" cy="141" r="4.5" fill="#22c55e"/>
    <text x="86" y="145" fill="#9aa1ab" font-size="10">CTRL</text>
    <text x="250" y="150" fill="#ffb000" font-size="30" font-family="Menlo,monospace" text-anchor="middle">7 050 000</text>
    <text x="250" y="166" fill="#6f7680" font-size="9.5" font-family="Menlo,monospace" text-anchor="middle">Hz</text>
    <text x="422" y="140" fill="#cfd4da" font-size="10" text-anchor="end">LSB 40m</text>
    <text x="422" y="156" fill="#ffb000" font-size="10.5" text-anchor="end">设置</text>

    <!-- VFO row -->
    <rect x="70" y="180" width="34" height="22" rx="11" fill="#ffb000"/>
    <text x="87" y="195" fill="#1a1206" font-size="11" font-weight="700" text-anchor="middle">A</text>
    <rect x="110" y="180" width="34" height="22" rx="11" fill="none" stroke="#3a3e45" stroke-width="1"/>
    <text x="127" y="195" fill="#9aa1ab" font-size="11" text-anchor="middle">B</text>
    <text x="352" y="196" fill="#ffb000" font-size="12" text-anchor="middle">+1k</text>
    <text x="412" y="196" fill="#ffb000" font-size="12" text-anchor="middle">-1k</text>

    <!-- waterfall -->
    <rect x="70" y="212" width="360" height="168" rx="6" fill="#07080a" stroke="#23262b"/>
    <rect x="71" y="213" width="358" height="166" rx="5" fill="url(#wf)" opacity="0.92"/>
    <rect x="71" y="213" width="358" height="60"  rx="5" fill="url(#wf2)" opacity="0.55"/>
    <rect x="150" y="240" width="16" height="138" fill="#ffd27a" opacity="0.85"/>
    <rect x="238" y="252" width="10" height="126" fill="#ffe9b0" opacity="0.75"/>
    <rect x="300" y="266" width="7"  height="112" fill="#ffc24d" opacity="0.55"/>
    <polyline points="70,300 100,290 130,282 150,246 168,240 186,268 214,272 238,252 262,266 286,270 310,266 340,276 370,280 400,286 430,290"
              fill="none" stroke="#eaf6ff" stroke-width="1.6" opacity="0.9"/>
    <text x="78" y="371" fill="#6f7680" font-size="8.5" font-family="Menlo,monospace">7.000</text>
    <text x="250" y="371" fill="#6f7680" font-size="8.5" font-family="Menlo,monospace" text-anchor="middle">7.050</text>
    <text x="422" y="371" fill="#6f7680" font-size="8.5" font-family="Menlo,monospace" text-anchor="end">7.100 MHz</text>

    <!-- control row -->
    <rect x="70" y="392" width="66" height="26" rx="13" fill="none" stroke="#3a3e45"/>
    <text x="103" y="409" fill="#e6e6e6" font-size="11" text-anchor="middle">模式</text>
    <rect x="142" y="392" width="96" height="26" rx="13" fill="none" stroke="#3a3e45"/>
    <text x="190" y="409" fill="#e6e6e6" font-size="11" text-anchor="middle">滤波 2400</text>
    <rect x="244" y="392" width="82" height="26" rx="13" fill="none" stroke="#3a3e45"/>
    <text x="285" y="409" fill="#e6e6e6" font-size="11" text-anchor="middle">ATT 0dB</text>
    <rect x="332" y="392" width="98" height="26" rx="13" fill="none" stroke="#3a3e45"/>
    <text x="381" y="409" fill="#e6e6e6" font-size="11" text-anchor="middle">PRE IPO</text>

    <!-- DSP chips -->
    <rect x="70" y="426" width="44" height="24" rx="12" fill="#ffb000"/>
    <text x="92" y="442" fill="#1a1206" font-size="10.5" font-weight="700" text-anchor="middle">NR</text>
    <rect x="122" y="426" width="44" height="24" rx="12" fill="#23262b" stroke="#3a3e45"/>
    <text x="144" y="442" fill="#9aa1ab" font-size="10.5" text-anchor="middle">NB</text>
    <rect x="174" y="426" width="44" height="24" rx="12" fill="#23262b" stroke="#3a3e45"/>
    <text x="196" y="442" fill="#9aa1ab" font-size="10.5" text-anchor="middle">AN</text>
    <rect x="226" y="426" width="58" height="24" rx="12" fill="#ffb000"/>
    <text x="255" y="442" fill="#1a1206" font-size="10.5" font-weight="700" text-anchor="middle">COMP</text>

    <!-- S meter -->
    <text x="70" y="474" fill="#e6e6e6" font-size="11">S</text>
    <rect x="84" y="465" width="282" height="9" rx="4.5" fill="#1c1f23"/>
    <rect x="84" y="465" width="150" height="9" rx="4.5" fill="#ffb000"/>
    <text x="430" y="474" fill="#9aa1ab" font-size="10" font-family="Menlo,monospace" text-anchor="end">-93.0 dBm</text>

    <!-- meters -->
    <text x="70" y="494" fill="#8a8f98" font-size="9.5">PWR</text>
    <rect x="104" y="486" width="242" height="7" rx="3.5" fill="#1c1f23"/>
    <rect x="104" y="486" width="34" height="7" rx="3.5" fill="#ffb000"/>
    <text x="430" y="494" fill="#9aa1ab" font-size="9.5" font-family="Menlo,monospace" text-anchor="end">5.0</text>
    <text x="70" y="512" fill="#8a8f98" font-size="9.5">SWR</text>
    <rect x="104" y="504" width="242" height="7" rx="3.5" fill="#1c1f23"/>
    <rect x="104" y="504" width="22" height="7" rx="3.5" fill="#22c55e"/>
    <text x="430" y="512" fill="#9aa1ab" font-size="9.5" font-family="Menlo,monospace" text-anchor="end">1.1</text>
    <text x="70" y="530" fill="#8a8f98" font-size="9.5">ALC</text>
    <rect x="104" y="522" width="242" height="7" rx="3.5" fill="#1c1f23"/>
    <rect x="104" y="522" width="12" height="7" rx="3.5" fill="#ffb000"/>
    <text x="430" y="530" fill="#9aa1ab" font-size="9.5" font-family="Menlo,monospace" text-anchor="end">0.0</text>

    <!-- REC entry -->
    <rect x="70" y="542" width="112" height="28" rx="14" fill="#2a1113" stroke="#e53935"/>
    <circle cx="86" cy="556" r="4.5" fill="#e53935"/>
    <text x="98" y="560" fill="#ff6b6b" font-size="11.5" font-weight="700">REC 1:23</text>

    <!-- memory grid -->
    <text x="70" y="592" fill="#6f7680" font-size="9.5">记忆频道（长按保存 · 点按调用）</text>
    <g font-family="Menlo,monospace">
      <g>
        <rect x="70" y="600" width="112" height="44" rx="8" fill="#15161a" stroke="#ffb000"/>
        <text x="80" y="618" fill="#ffb000" font-size="11" font-weight="700">M1</text>
        <text x="80" y="634" fill="#9aa1ab" font-size="9.5">7.050 LSB</text>
      </g>
      <g>
        <rect x="194" y="600" width="112" height="44" rx="8" fill="#15161a" stroke="#2a2d33"/>
        <text x="204" y="618" fill="#cfd4da" font-size="11">M2</text>
        <text x="204" y="634" fill="#9aa1ab" font-size="9.5">14.270 USB</text>
      </g>
      <g>
        <rect x="318" y="600" width="112" height="44" rx="8" fill="#15161a" stroke="#2a2d33"/>
        <text x="328" y="618" fill="#cfd4da" font-size="11">M3</text>
        <text x="328" y="634" fill="#9aa1ab" font-size="9.5">21.074 CW</text>
      </g>
      <g>
        <rect x="70" y="652" width="112" height="44" rx="8" fill="#15161a" stroke="#2a2d33"/>
        <text x="80" y="670" fill="#cfd4da" font-size="11">M4</text>
        <text x="80" y="686" fill="#9aa1ab" font-size="9.5">28.500 USB</text>
      </g>
      <g>
        <rect x="194" y="652" width="112" height="44" rx="8" fill="#0f1013" stroke="#23262b" stroke-dasharray="3 3"/>
        <text x="250" y="679" fill="#4d525a" font-size="10" text-anchor="middle">空</text>
      </g>
      <g>
        <rect x="318" y="652" width="112" height="44" rx="8" fill="#0f1013" stroke="#23262b" stroke-dasharray="3 3"/>
        <text x="374" y="679" fill="#4d525a" font-size="10" text-anchor="middle">空</text>
      </g>
    </g>

    <!-- listen-only hint (present when logged in read-only) -->
    <text x="70" y="718" fill="#4d525a" font-size="9">只读登录时此处显示橙色提示条，发射类按钮整体隐藏</text>

    <!-- bottom: TUNE | CQ | PTT -->
    <rect x="70" y="770" width="104" height="72" rx="12" fill="#1b1c20" stroke="#ffb000"/>
    <text x="122" y="812" fill="#ffb000" font-size="14" font-weight="700" text-anchor="middle">TUNE</text>
    <rect x="182" y="770" width="104" height="72" rx="12" fill="#0f2417" stroke="#22c55e"/>
    <text x="234" y="806" fill="#22c55e" font-size="14" font-weight="700" text-anchor="middle">CQ</text>
    <text x="234" y="824" fill="#4d8f66" font-size="9" text-anchor="middle">6.1s 自动呼叫</text>
    <rect x="294" y="770" width="136" height="72" rx="12" fill="#e53935"/>
    <text x="362" y="803" fill="#ffffff" font-size="15" font-weight="800" text-anchor="middle">PTT</text>
    <text x="362" y="823" fill="#ffd9d9" font-size="9.5" text-anchor="middle">按住发射 · 松手停止</text>

    <text x="250" y="976" fill="#8a8f98" font-size="12.5" text-anchor="middle">① 主屏 — 控制 / 频谱瀑布 / 仪表 / 记忆频道 / REC / CQ</text>
  </g>

  <!-- ======================= PHONE 2 : RECORDING PANEL ======================= -->
  <g>
    <rect x="500" y="95" width="420" height="860" rx="34" fill="#0d0e11" stroke="#2a2d33" stroke-width="2"/>
    <rect x="516" y="111" width="388" height="828" rx="22" fill="#0b0b0c"/>

    <!-- header -->
    <text x="538" y="152" fill="#e6e6e6" font-size="19" font-weight="700">录音</text>
    <text x="836" y="150" fill="#ffb000" font-size="12" text-anchor="middle">刷新</text>
    <text x="882" y="150" fill="#9aa1ab" font-size="12" text-anchor="middle">关闭</text>
    <line x1="530" y1="168" x2="890" y2="168" stroke="#23262b"/>

    <!-- live status -->
    <circle cx="543" cy="196" r="5" fill="#e53935"/>
    <text x="556" y="200" fill="#ff6b6b" font-size="12.5" font-weight="700">录制中 1:23</text>
    <text x="680" y="200" fill="#8a8f98" font-size="11">· 1.2 MB</text>
    <rect x="812" y="181" width="70" height="28" rx="14" fill="#e53935"/>
    <text x="847" y="199" fill="#fff" font-size="11.5" font-weight="700" text-anchor="middle">停止</text>

    <!-- playback bar -->
    <rect x="530" y="220" width="360" height="40" rx="10" fill="#15161a" stroke="#2a2d33"/>
    <text x="544" y="245" fill="#ffb000" font-size="12" font-family="Menlo,monospace">▶ 0:12 / 1:01</text>
    <text x="650" y="238" fill="#9aa1ab" font-size="9.5" font-family="Menlo,monospace">7050000kHz_20261003_120000.mp3</text>
    <rect x="648" y="243" width="160" height="6" rx="3" fill="#23262b"/>
    <rect x="648" y="243" width="38" height="6" rx="3" fill="#ffb000"/>
    <text x="826" y="245" fill="#ffb000" font-size="11">暂停</text>
    <text x="872" y="245" fill="#9aa1ab" font-size="11">停止</text>

    <!-- list -->
    <g font-size="11.5">
      <line x1="530" y1="272" x2="890" y2="272" stroke="#1c1f23"/>
      <text x="538" y="294" fill="#e6e6e6" font-size="13" font-family="Menlo,monospace">7050 kHz</text>
      <text x="660" y="294" fill="#9aa1ab" font-size="11">10-03 12:00</text>
      <text x="756" y="294" fill="#9aa1ab" font-size="11" font-family="Menlo,monospace">1:01</text>
      <text x="800" y="294" fill="#9aa1ab" font-size="11" font-family="Menlo,monospace">476 KB</text>
      <rect x="846" y="280" width="42" height="22" rx="11" fill="none" stroke="#ffb000"/>
      <text x="867" y="295" fill="#ffb000" font-size="10.5" text-anchor="middle">导出</text>
      <text x="538" y="311" fill="#4d525a" font-size="9">长按删除</text>
      <line x1="530" y1="320" x2="890" y2="320" stroke="#1c1f23"/>

      <text x="538" y="342" fill="#e6e6e6" font-size="13" font-family="Menlo,monospace">14270 kHz</text>
      <text x="660" y="342" fill="#9aa1ab" font-size="11">10-03 09:12</text>
      <text x="756" y="342" fill="#9aa1ab" font-size="11" font-family="Menlo,monospace">2:34</text>
      <text x="800" y="342" fill="#9aa1ab" font-size="11" font-family="Menlo,monospace">1.2 MB</text>
      <rect x="846" y="328" width="42" height="22" rx="11" fill="none" stroke="#ffb000"/>
      <text x="867" y="343" fill="#ffb000" font-size="10.5" text-anchor="middle">导出</text>
      <text x="538" y="359" fill="#4d525a" font-size="9">长按删除</text>
      <line x1="530" y1="368" x2="890" y2="368" stroke="#1c1f23"/>

      <text x="538" y="390" fill="#e6e6e6" font-size="13" font-family="Menlo,monospace">21074 kHz</text>
      <text x="660" y="390" fill="#9aa1ab" font-size="11">10-02 20:45</text>
      <text x="756" y="390" fill="#9aa1ab" font-size="11" font-family="Menlo,monospace">0:48</text>
      <text x="800" y="390" fill="#9aa1ab" font-size="11" font-family="Menlo,monospace">380 KB</text>
      <rect x="846" y="376" width="42" height="22" rx="11" fill="none" stroke="#ffb000"/>
      <text x="867" y="391" fill="#ffb000" font-size="10.5" text-anchor="middle">导出</text>
      <text x="538" y="407" fill="#4d525a" font-size="9">长按删除</text>
      <line x1="530" y1="416" x2="890" y2="416" stroke="#1c1f23"/>

      <text x="538" y="438" fill="#e6e6e6" font-size="13" font-family="Menlo,monospace">7050 kHz</text>
      <text x="660" y="438" fill="#9aa1ab" font-size="11">10-02 11:30</text>
      <text x="756" y="438" fill="#9aa1ab" font-size="11" font-family="Menlo,monospace">3:12</text>
      <text x="800" y="438" fill="#9aa1ab" font-size="11" font-family="Menlo,monospace">1.5 MB</text>
      <rect x="846" y="424" width="42" height="22" rx="11" fill="none" stroke="#ffb000"/>
      <text x="867" y="439" fill="#ffb000" font-size="10.5" text-anchor="middle">导出</text>
      <text x="538" y="455" fill="#4d525a" font-size="9">长按删除</text>
      <line x1="530" y1="464" x2="890" y2="464" stroke="#1c1f23"/>
    </g>

    <!-- busy hint -->
    <text x="538" y="492" fill="#e67e22" font-size="10.5">处理中…（下载到本地缓存）</text>

    <!-- delete confirm dialog -->
    <rect x="556" y="530" width="308" height="150" rx="16" fill="#1a1c21" stroke="#2a2d33"/>
    <text x="576" y="564" fill="#e6e6e6" font-size="14.5" font-weight="700">删除录音</text>
    <text x="576" y="592" fill="#9aa1ab" font-size="11">确定删除 7050000kHz_20261003_120000.mp3 ？</text>
    <text x="576" y="610" fill="#9aa1ab" font-size="11">服务端文件将被永久删除。</text>
    <text x="746" y="654" fill="#9aa1ab" font-size="12" text-anchor="middle">取消</text>
    <text x="826" y="654" fill="#ff6b6b" font-size="12" font-weight="700" text-anchor="middle">删除</text>

    <!-- annotations -->
    <g fill="#6f7680" font-size="10">
      <text x="538" y="712">· 播放：先经 OkHttp 下载到本地缓存再播（自签证书下</text>
      <text x="548" y="726">平台播放器不可用），进度条可拖</text>
      <text x="538" y="744">· 导出：FileProvider 走系统分享（存文件 / 微信）</text>
      <text x="538" y="762">· 当前录音高亮且不可删（删除会 409）</text>
      <text x="538" y="780">· 列表随 recordingState 广播自动刷新</text>
    </g>

    <text x="710" y="976" fill="#8a8f98" font-size="12.5" text-anchor="middle">② 录音面板 — 启停 / 列表 / 播放 / 导出 / 删除</text>
  </g>

  <!-- footer note -->
  <text x="480" y="996" fill="#4d525a" font-size="10.5" text-anchor="middle">深色琥珀主题 · 频率/时长用等宽字体 · 服务端时间戳为 2026-10-03 示例数据</text>
</svg>
